<?xml version="1.0" encoding="utf-8"?>
<!-- Generator: Adobe Illustrator 25.2.3, SVG Export Plug-In . SVG Version: 6.00 Build 0)  -->
<svg version="1.1" id="Layer_1" xmlns="http://www.w3.org/2000/svg" xmlns:xlink="http://www.w3.org/1999/xlink" x="0px" y="0px"
	 viewBox="0 0 84.4 85.2" style="enable-background:new 0 0 84.4 85.2;" xml:space="preserve">
<style type="text/css">
	.st0{fill:#FCEA10;}
</style>
<g id="Laag_1">
	<g>
		<path class="st0" d="M1.8,2.9C2.4,2.8,3,2.6,3.4,2.2c0.4-0.4,0.7-1.1,0.4-1.7C3.5-0.1,2.8-0.1,2.1,0C1.9-0.1,1.5,0,1.5,0
			C1.1,0.1,0.6,0.2,0.4,0.6c-0.3,0.6-0.6,1.5-0.1,2C0.7,3,1.4,2.9,1.8,2.9z M2,1.4c0,0.1,0,0.1,0,0.2l0,0C2,1.4,2,1.4,2,1.4z"/>
		<path class="st0" d="M84.4,33.8c0-0.3-0.1-0.5-0.2-0.8c-0.1-0.2-0.3-0.3-0.5-0.4c0-0.1,0.1-0.2,0.1-0.3c0.1-0.5-0.5-0.7-0.9-0.6
			c-1,0.1-2.5,0.6-2.3,2c0.1,0.7,0.9,1.4,1.6,1.6c0.5,0.2,1.2,0.1,1.7-0.2C84.3,34.8,84.4,34.3,84.4,33.8z"/>
		<path class="st0" d="M71.6,34.4c-2-0.8-4.6-0.3-6.7-0.3c-4.3,0-8.6,0-12.9,0c-4,0-7.9,0.2-11.9,0.2c-1.7,0-9.3,0.2-10-2.2
			c0.2-0.5,0.3-1.1,0.4-1.7c0.1-0.7-1.6-0.2-1.9,0.1c-0.4,0.6-0.6,1.2-0.6,1.7c-1.2,1.9-3.9,1.3-5.8,0.1c-0.4-0.3-1.8-0.1-1.9,0.5
			c-0.3,2-0.1,1.6-0.3-0.3c-0.2-1.7,0.2-3.3,0-4.9c-0.1-0.7-1.7,0-1.9,0.4c-0.4,0.9-3.7,9.3-5.2,6.5c-1.2-2.1,0.8-5.9,1.5-7.9
			c0.1-0.3-0.4-0.4-0.6-0.4c-3.1,0.1-7.2,0.7-8.6,3.8l-0.1,0.1c-0.3,0.3-0.5,0.7-0.7,1.1c0-1.4,0-2.8,0-4.2c0-3.1,0-6.2,0-9.4
			c0-3.3-1.1-6.2-1.7-9.5c-0.1-0.5-2,0-1.9,0.5c0.4,2.6,1.3,5,1.6,7.6c0.4,3,0.1,6.3,0,9.3c0,6.3,0,12.7-0.1,19
			c0,13.5-0.1,27-0.1,40.5c0,0.4,1.9,0.1,1.9-0.5c0-12.9,0.1-25.7,0.1-38.6c0-3.4,0-6.7,0-10.1c0.6,1,1.6,1.7,3.2,1.3
			c3.1-0.7,3.1-7.4,0-7.9c-1.7-0.3,5.4-3.9,4.4-1.4c-0.6,1.6-1.1,3.2-1.3,4.9c-0.2,1.6,0.6,3.6,2.5,3.6c2.4,0,3.8-1.9,4.8-4.1
			c0.1,1.9,0.4,3.6,1.8,3.6c1.5-0.1,2-0.8,2.2-1.9c1.2,0.9,2.4,1.7,3.9,1.3c1.3-0.3,2.3-0.9,3.1-1.7c2.4,1.7,8.5,1.5,10.3,1.5
			c3.3,0,6.7-0.2,10-0.2c4.3,0,8.6,0,12.9,0c1.5,0,3.1,0,4.6,0c1.4-0.1,4.8,1.4,2.1,2c-1.2,0.3-0.9,1.1,0.2,0.8
			C70.5,37.7,75.5,36,71.6,34.4z M7.9,32.8c0.1,0.4-0.1,4.1-1,3.3c-1.5-1.2-1.2-3.8-0.3-5.3C7.4,31.3,7.8,32,7.9,32.8z"/>
	</g>
</g>
</svg>
