<?xml version="1.0" standalone="no"?>
<!DOCTYPE svg PUBLIC "-//W3C//DTD SVG 20010904//EN"
 "http://www.w3.org/TR/2001/REC-SVG-20010904/DTD/svg10.dtd">
<svg version="1.0" xmlns="http://www.w3.org/2000/svg"
 width="700.000000pt" height="700.000000pt" viewBox="0 0 700.000000 700.000000"
 preserveAspectRatio="xMidYMid meet">
<metadata>
Created by potrace 1.14, written by Peter Selinger 2001-2017
</metadata>
<g transform="translate(0.000000,700.000000) scale(0.100000,-0.100000)"
fill="#000000" stroke="none">
<path d="M647 6530 c-46 -17 -75 -57 -82 -115 -4 -30 0 -41 23 -65 23 -23 35
-27 72 -25 59 3 125 23 150 47 49 46 57 104 19 144 -27 29 -123 36 -182 14z"/>
<path d="M670 5963 c-8 -3 -26 -10 -38 -16 -29 -14 -28 -24 23 -234 37 -152
43 -182 51 -228 2 -16 7 -39 9 -51 14 -65 20 -184 18 -379 -1 -121 -5 -530 -8
-910 -4 -379 -7 -1405 -8 -2280 l-2 -1590 43 2 c23 0 54 8 67 17 l25 16 1 648
c3 2234 4 2942 8 2942 2 0 12 -11 23 -25 32 -41 93 -67 159 -66 112 0 184 66
215 199 39 165 -26 348 -135 381 -23 6 -41 18 -41 26 0 52 255 170 323 149 25
-8 21 -35 -18 -154 -43 -127 -74 -275 -69 -325 8 -90 49 -161 107 -189 74 -34
196 -8 275 59 39 34 132 162 132 183 0 5 6 14 13 20 10 9 14 3 15 -31 4 -62
29 -143 55 -172 32 -38 90 -43 150 -15 38 18 51 31 69 70 l22 48 31 -24 c53
-40 145 -77 194 -77 66 -1 156 31 229 80 l62 43 38 -19 c55 -28 173 -58 257
-67 186 -18 376 -20 825 -9 168 5 627 8 1020 8 l715 0 58 -23 c106 -40 134
-86 70 -111 -76 -30 -93 -40 -93 -53 0 -21 20 -25 106 -20 103 5 206 38 250
79 19 18 34 37 34 42 0 22 -44 64 -85 83 -84 38 -150 47 -340 44 -99 -2 -511
-6 -915 -9 -1433 -13 -1446 -13 -1589 15 -86 16 -146 36 -189 64 -60 38 -65
53 -46 131 19 76 11 94 -37 89 -57 -7 -96 -33 -113 -75 -9 -22 -16 -50 -16
-62 0 -28 -52 -79 -98 -97 -71 -28 -197 -6 -299 51 -55 30 -94 36 -136 20 -25
-10 -34 -25 -43 -78 -14 -74 -18 -5 -15 244 1 175 0 193 -16 202 -36 19 -125
-28 -139 -73 -17 -58 -179 -368 -217 -416 -81 -102 -133 -103 -170 -5 -34 91
-12 213 84 459 49 126 47 130 -70 122 -291 -20 -468 -100 -556 -250 -15 -25
-31 -46 -36 -46 -5 0 -9 -6 -9 -12 0 -7 -6 -21 -14 -30 -10 -14 -12 74 -12
485 1 603 -2 655 -55 877 -11 47 -23 96 -25 110 -3 14 -10 43 -16 65 -6 22
-12 51 -14 65 -12 71 -20 85 -50 86 -16 0 -36 -1 -44 -3z m418 -1733 c40 -37
55 -81 55 -155 0 -104 -22 -199 -47 -208 -35 -14 -94 87 -100 169 -5 86 28
214 57 214 7 0 23 -9 35 -20z"/>
<path d="M6615 4188 c-41 -15 -83 -45 -97 -71 -42 -80 42 -187 149 -187 105 0
156 114 86 192 -8 9 -13 23 -10 30 2 7 0 21 -5 31 -10 20 -73 22 -123 5z"/>
</g>
</svg>
